<svg width="19" height="19" viewBox="0 0 19 19" fill="none" xmlns="http://www.w3.org/2000/svg">
<path d="M18.24 0H0.76C0.339625 0 0 0.339625 0 0.76V18.24C0 18.6604 0.339625 19 0.76 19H18.24C18.6604 19 19 18.6604 19 18.24V0.76C19 0.339625 18.6604 0 18.24 0ZM17.48 17.48H13.1076V11.6423H15.5776L15.9481 8.77563H13.1076V6.9445C13.1076 6.11325 13.338 5.548 14.5279 5.548H16.0455V2.983C15.7819 2.94738 14.8818 2.869 13.832 2.869C11.6423 2.869 10.1436 4.20612 10.1436 6.6595V8.77325H7.66887V11.6399H10.146V17.48H1.52V1.52H17.48V17.48Z" fill="black"/>
</svg>
